<svg width="103" height="73" viewBox="0 0 103 73" fill="none" xmlns="http://www.w3.org/2000/svg">
<path d="M22.9733 50.4521C22.9733 49.6774 22.8532 48.9858 22.613 48.3771C22.3913 47.75 21.9756 47.1875 21.366 46.6895C20.7748 46.173 19.9342 45.675 18.8442 45.1955C17.7726 44.6975 16.387 44.1811 14.6874 43.6462C12.8029 43.056 11.0479 42.392 9.42208 41.6542C7.79631 40.9164 6.36453 40.0588 5.12672 39.0813C3.90739 38.1037 2.95595 36.9786 2.27238 35.706C1.58882 34.4149 1.24704 32.9209 1.24704 31.2241C1.24704 29.5641 1.59806 28.0517 2.3001 26.6868C3.02061 25.3219 4.03672 24.1507 5.34842 23.1732C6.66012 22.1772 8.20275 21.4118 9.97632 20.8769C11.7684 20.342 13.7452 20.0746 15.9067 20.0746C18.8996 20.0746 21.486 20.6187 23.6661 21.7069C25.8645 22.7951 27.5642 24.2706 28.7651 26.1335C29.9659 27.9963 30.5663 30.0897 30.5663 32.4137H22.9733C22.9733 31.1595 22.7054 30.0529 22.1696 29.0938C21.6523 28.1347 20.8579 27.3785 19.7864 26.8251C18.7333 26.2718 17.4031 25.9951 15.7958 25.9951C14.244 25.9951 12.9507 26.2257 11.9162 26.6868C10.9001 27.1479 10.1334 27.775 9.61607 28.5681C9.11725 29.3612 8.86784 30.2465 8.86784 31.2241C8.86784 31.9618 9.04335 32.6258 9.39437 33.216C9.74539 33.7878 10.2719 34.3319 10.974 34.8483C11.676 35.3463 12.5443 35.8166 13.5789 36.2593C14.6319 36.6835 15.8513 37.1077 17.2369 37.5319C19.4538 38.1959 21.3937 38.9337 23.0564 39.7452C24.7376 40.5568 26.1324 41.479 27.2409 42.5119C28.3679 43.5447 29.2085 44.7067 29.7627 45.9978C30.3354 47.2889 30.6218 48.7552 30.6218 50.3967C30.6218 52.1305 30.28 53.6798 29.5964 55.0446C28.9129 56.4095 27.9337 57.5715 26.659 58.5306C25.3842 59.4897 23.8508 60.2182 22.0588 60.7162C20.2852 61.2142 18.2992 61.4632 16.1007 61.4632C14.1424 61.4632 12.2025 61.205 10.2812 60.6885C8.37826 60.1537 6.65088 59.3606 5.09901 58.3093C3.54714 57.2395 2.30933 55.8931 1.3856 54.27C0.461867 52.6285 0 50.7103 0 48.5154H7.64851C7.64851 49.7881 7.85174 50.8763 8.25818 51.78C8.6831 52.6654 9.27429 53.3939 10.0317 53.9657C10.8077 54.519 11.7129 54.9248 12.7475 55.183C13.7821 55.4412 14.8998 55.5703 16.1007 55.5703C17.6526 55.5703 18.9273 55.3582 19.9249 54.934C20.941 54.4913 21.6985 53.8827 22.1973 53.108C22.7146 52.3334 22.9733 51.448 22.9733 50.4521Z" fill="#048E86" fill-opacity="0.53"/>
<path d="M40.7544 57.5899L48.7909 30.9751H56.6334L44.6064 65.4471C44.3292 66.1849 43.969 66.9872 43.5256 67.8541C43.1007 68.721 42.528 69.5417 41.8074 70.3164C41.0869 71.1095 40.1817 71.755 39.0917 72.253C38.0201 72.751 36.7177 73 35.1843 73C34.5192 73 33.928 72.9539 33.4107 72.8617C32.8934 72.7694 32.3484 72.6496 31.7757 72.502V67.0241C31.9604 67.0425 32.1729 67.0518 32.4131 67.0518C32.6717 67.0702 32.8934 67.0794 33.0782 67.0794C34.1497 67.0794 35.0365 66.9503 35.7385 66.6921C36.4406 66.4523 37.004 66.0558 37.429 65.5025C37.8723 64.9676 38.2418 64.2667 38.5374 63.3998L40.7544 57.5899ZM36.7916 30.9751L42.8077 50.7898L41.0351 56.6604L39.392 61.1604L29.3421 32.4137H30.5663L30.4863 30.9751H36.7916Z" fill="#048E86" fill-opacity="0.53"/>
<path d="M72.6964 52.7207C72.6964 52.0936 72.5301 51.531 72.1975 51.0331C71.865 50.5351 71.2369 50.0832 70.3131 49.6774C69.4079 49.2532 68.0777 48.8566 66.3226 48.4878C64.7707 48.1558 63.3389 47.7408 62.0272 47.2428C60.7155 46.7448 59.5886 46.1454 58.6464 45.4445C57.7042 44.7252 56.9652 43.886 56.4294 42.9269C55.9121 41.9493 55.6535 40.8242 55.6535 39.5516C55.6535 38.3158 55.9214 37.1538 56.4571 36.0656C56.9929 34.959 57.7688 33.9907 58.7849 33.1607C59.801 32.3123 61.0388 31.6483 62.4983 31.1687C63.9578 30.6707 65.6021 30.4217 67.4311 30.4217C69.9806 30.4217 72.1698 30.8367 73.9988 31.6667C75.8463 32.4967 77.2596 33.6402 78.2388 35.0973C79.2179 36.536 79.7075 38.159 79.7075 39.9666H72.3915C72.3915 39.1735 72.2068 38.4542 71.8373 37.8086C71.4863 37.1631 70.9413 36.6466 70.2023 36.2593C69.4633 35.8535 68.5303 35.6507 67.4034 35.6507C66.3873 35.6507 65.5282 35.8166 64.8262 36.1486C64.1426 36.4806 63.6253 36.9141 63.2743 37.449C62.9233 37.9838 62.7478 38.574 62.7478 39.2196C62.7478 39.6991 62.8401 40.1326 63.0249 40.5199C63.2281 40.8888 63.5514 41.23 63.9948 41.5435C64.4382 41.8571 65.0386 42.143 65.7961 42.4012C66.572 42.6594 67.5235 42.9084 68.6504 43.1482C70.8858 43.5908 72.8349 44.1811 74.4977 44.9188C76.1788 45.6381 77.4905 46.5972 78.4328 47.7961C79.375 48.995 79.8461 50.5258 79.8461 52.3887C79.8461 53.7167 79.5597 54.934 78.987 56.0406C78.4143 57.1288 77.5829 58.0787 76.4929 58.8902C75.4029 59.7018 74.1004 60.3381 72.5855 60.7992C71.0706 61.2419 69.3617 61.4632 67.4588 61.4632C64.7061 61.4632 62.3783 60.9744 60.4754 59.9969C58.5725 59.0009 57.1315 57.7467 56.1523 56.2343C55.1731 54.7034 54.6836 53.1172 54.6836 51.4757H61.6947C61.7501 52.6377 62.0642 53.5691 62.6369 54.27C63.2096 54.9709 63.9301 55.4781 64.7984 55.7916C65.6852 56.0867 66.6182 56.2343 67.5974 56.2343C68.7058 56.2343 69.6388 56.0867 70.3963 55.7916C71.1537 55.4781 71.7264 55.0631 72.1144 54.5467C72.5024 54.0118 72.6964 53.4031 72.6964 52.7207Z" fill="#048E86" fill-opacity="0.53"/>
<path d="M98.5661 2.21719C99.1541 2.21719 99.7179 2.45079 100.134 2.86659C100.549 3.2824 100.783 3.84635 100.783 4.43438V22.1719C100.783 22.76 100.549 23.3239 100.134 23.7397C99.7179 24.1555 99.1541 24.3891 98.5661 24.3891H93.0237C92.3353 24.3891 91.6564 24.5494 91.0408 24.8573C90.4251 25.1651 89.8895 25.6121 89.4765 26.1629L85.2643 31.779L81.0521 26.1629C80.6391 25.6121 80.1035 25.1651 79.4879 24.8573C78.8722 24.5494 78.1933 24.3891 77.505 24.3891H71.9625C71.3746 24.3891 70.8107 24.1555 70.3949 23.7397C69.9792 23.3239 69.7456 22.76 69.7456 22.1719V4.43438C69.7456 3.84635 69.9792 3.2824 70.3949 2.86659C70.8107 2.45079 71.3746 2.21719 71.9625 2.21719H98.5661ZM71.9625 0C70.7866 0 69.6588 0.467193 68.8273 1.2988C67.9958 2.13041 67.5286 3.25831 67.5286 4.43438V22.1719C67.5286 23.348 67.9958 24.4759 68.8273 25.3075C69.6588 26.1391 70.7866 26.6063 71.9625 26.6063H77.505C77.8491 26.6063 78.1886 26.6864 78.4964 26.8404C78.8042 26.9943 79.072 27.2178 79.2785 27.4932L83.4907 33.1093C83.6973 33.3847 83.965 33.6082 84.2729 33.7621C84.5807 33.9161 84.9201 33.9962 85.2643 33.9962C85.6085 33.9962 85.9479 33.9161 86.2558 33.7621C86.5636 33.6082 86.8314 33.3847 87.0379 33.1093L91.2501 27.4932C91.4566 27.2178 91.7244 26.9943 92.0322 26.8404C92.3401 26.6864 92.6795 26.6063 93.0237 26.6063H98.5661C99.742 26.6063 100.87 26.1391 101.701 25.3075C102.533 24.4759 103 23.348 103 22.1719V4.43438C103 3.25831 102.533 2.13041 101.701 1.2988C100.87 0.467193 99.742 0 98.5661 0H71.9625Z" fill="#7AC3BF"/>
<path d="M83.1937 10.5538C82.7619 9.88125 82.1234 9.36701 81.3743 9.0884C80.6252 8.8098 79.8059 8.78189 79.0396 9.00887C78.2732 9.23584 77.6012 9.70544 77.1246 10.3471C76.648 10.9887 76.3925 11.7677 76.3965 12.567C76.3969 13.229 76.575 13.8786 76.9123 14.4481C77.2495 15.0177 77.7335 15.4862 78.3137 15.8047C78.8938 16.1233 79.5489 16.2802 80.2104 16.259C80.8719 16.2378 81.5155 16.0394 82.0742 15.6844C81.7837 16.5469 81.2428 17.467 80.3516 18.3894C80.1811 18.5658 80.0876 18.8027 80.0918 19.0481C80.0959 19.2934 80.1974 19.527 80.3737 19.6975C80.5501 19.8681 80.787 19.9615 81.0323 19.9574C81.2776 19.9532 81.5112 19.8518 81.6818 19.6754C84.9762 16.2609 84.5483 12.5493 83.1937 10.5583V10.5538ZM92.0616 10.5538C91.6297 9.88125 90.9913 9.36701 90.2421 9.0884C89.493 8.8098 88.6737 8.78189 87.9074 9.00887C87.1411 9.23584 86.4691 9.70544 85.9925 10.3471C85.5159 10.9887 85.2603 11.7677 85.2644 12.567C85.2648 13.229 85.4429 13.8786 85.7801 14.4481C86.1174 15.0177 86.6013 15.4862 87.1815 15.8047C87.7617 16.1233 88.4167 16.2802 89.0782 16.259C89.7397 16.2378 90.3834 16.0394 90.942 15.6844C90.6516 16.5469 90.1106 17.467 89.2194 18.3894C89.0489 18.5658 88.9555 18.8027 88.9596 19.0481C88.9638 19.2934 89.0652 19.527 89.2416 19.6975C89.418 19.8681 89.6549 19.9615 89.9002 19.9574C90.1455 19.9532 90.3791 19.8518 90.5496 19.6754C93.844 16.2609 93.4161 12.5493 92.0616 10.5583V10.5538Z" fill="#7AC3BF"/>
</svg>
